#!OML:ASF H:\Terrain\Patient Classification 1\Animal1\Tuesday\Animal1.ASF
:FULLY-SPECIFIED
:DEGREES
1675
root 6.81389 16.1131 -19.6168 12.6013 -48.2058 -1.62298
lowerback -8.87678 7.10567 5.26422
upperback -8.64185 8.96739 -0.848241
thorax -3.18346 4.15721 -3.18024
lowerneck -3.32177 3.9477 -2.58126
upperneck 22.9374 3.53485 9.83561
head 7.28405 2.26015 3.90909
rclavicle 2.88238e-015 -1.19271e-014
rhumerus -14.8138 35.1082 -74.2294
rradius 14.9048
rwrist -23.651
rhand -14.5703 23.6004
rfingers 7.12502
rthumb 11.5791 -6.05971
lclavicle 2.88238e-015 -1.19271e-014
lhumerus -85.1515 -27.7172 95.8791
lradius 34.8865
lwrist 14.0132
lhand 27.5123 27.8826
lfingers 7.12502
lthumb 51.4571 48.3052
rfemur -8.32928 35.3528 30.3218
rtibia 12.7516
rfoot -6.75714 -33.7334
rtoes 13.7805
lfemur -53.9719 -39.8476 20.183
ltibia 15.1279
lfoot -26.5412 37.1961
ltoes 13.2104
1676
root 6.79921 16.1137 -19.5928 12.6771 -48.4145 -1.7331
lowerback -8.92669 7.18502 5.33751
upperback -8.55934 9.06407 -0.840919
thorax -3.0508 4.20856 -3.18958
lowerneck -3.43665 4.03866 -2.42338
upperneck 22.7177 3.69217 9.69871
head 7.23047 2.33862 3.84162
rclavicle -3.01159e-014 -3.53837e-014
rhumerus -14.8916 35.8268 -74.4079
rradius 14.9979
rwrist -24.0223
rhand -14.3538 23.5912
rfingers 7.12502
rthumb 11.7879 -6.05702
lclavicle -3.01159e-014 -3.53837e-014
lhumerus -85.1418 -27.7667 95.923
lradius 34.9049
lwrist 14.4444
lhand 27.5424 28.0662
lfingers 7.12502
lthumb 51.4845 48.4732
rfemur -8.08238 35.3114 30.4159
rtibia 12.5218
rfoot -6.68063 -33.567
rtoes 13.3796
lfemur -53.9047 -39.7919 20.0059
ltibia 15.3134
lfoot -28.9563 35.8285
ltoes 15.463
1677
root 6.78455 16.1014 -19.5659 12.5916 -48.5597 -1.98087
lowerback -8.57331 7.19655 5.55069
upperback -8.51779 9.09548 -0.788412
thorax -3.17467 4.21349 -3.28813
lowerneck -3.48009 4.19296 -2.31037
upperneck 22.6169 3.92034 9.62114
head 7.19573 2.4517 3.80809
rclavicle -1.71203e-014 -1.31198e-014
rhumerus -15.1829 37.0858 -74.869
rradius 15.0421
rwrist -24.8154
rhand -13.9363 23.8821
rfingers 7.12502
rthumb 12.1905 -5.74268
lclavicle -1.71203e-014 -1.31198e-014
lhumerus -85.2311 -27.7375 95.9349
lradius 34.9634
lwrist 14.8175
lhand 27.7749 28.6848
lfingers 7.12502
lthumb 51.6958 48.9694
rfemur -7.43179 35.0798 30.8513
rtibia 12.2418
rfoot -6.04872 -33.6543
rtoes 11.4731
lfemur -53.698 -40.0625 19.8963
ltibia 15.5659
lfoot -30.2036 35.1547
ltoes 16.989
1678
root 6.76778 16.0948 -19.5386 12.812 -48.6355 -2.29526
lowerback -8.44183 7.19522 5.77889
upperback -8.59443 9.09265 -0.744401
thorax -3.30406 4.19563 -3.38758
lowerneck -3.55828 4.36856 -2.25531
upperneck 22.7068 4.14301 9.67746
head 7.22459 2.57102 3.83643
rclavicle 9.78766e-014 2.36554e-014
rhumerus -15.6361 37.9894 -75.4291
rradius 15.1853
rwrist -24.9572
rhand -13.9214 24.1429
rfingers 7.12502
rthumb 12.2049 -5.48105
lclavicle 9.78766e-014 2.36554e-014
lhumerus -85.4226 -27.7793 96.0485
lradius 35.0333
lwrist 15.1637
lhand 27.8292 28.8687
lfingers 7.12502
lthumb 51.7451 49.1245
rfemur -7.06392 34.9281 31.1483
rtibia 11.9132
rfoot -6.22111 -33.5533
rtoes 11.4719
lfemur -53.3524 -39.5866 19.268
ltibia 15.8512
lfoot -29.0919 34.3971
ltoes 17.231
1679
root 6.75265 16.0897 -19.5105 13.408 -48.7364 -2.75306
lowerback -8.58693 7.27152 6.05913
upperback -8.73921 9.16734 -0.692691
thorax -3.34263 4.21408 -3.46941
lowerneck -3.75339 4.48027 -2.22053
upperneck 22.9455 4.25871 9.78185
head 7.32829 2.64533 3.88753
rclavicle 9.92432e-014 2.84262e-014
rhumerus -16.0808 38.6171 -75.9007
rradius 15.3046
rwrist -24.9548
rhand -14.1499 24.2608
rfingers 7.12502
rthumb 11.9846 -5.37608
lclavicle 9.92432e-014 2.84262e-014
lhumerus -85.6646 -27.8652 96.2666
lradius 35.054
lwrist 15.311
lhand 27.6717 28.4684
lfingers 7.12502
lthumb 51.6021 48.8074
rfemur -7.11388 34.7526 31.3448
rtibia 11.6664
rfoot -5.86924 -33.1267
rtoes 10.7334
lfemur -53.1902 -38.7288 18.7987
ltibia 16.0842
lfoot -28.6187 32.8565
ltoes 16.8001
1680
root 6.73861 16.0842 -19.4846 13.5433 -48.9842 -2.90597
lowerback -8.53541 7.32739 6.08046
upperback -8.74987 9.24486 -0.640334
thorax -3.38017 4.25133 -3.42769
lowerneck -3.87151 4.55224 -2.25624
upperneck 22.8427 4.36969 9.8002
head 7.30669 2.69947 3.90604
rclavicle 3.68994e-014 -6.16232e-015
rhumerus -16.3534 39.7278 -76.2951
rradius 15.3804
rwrist -25.5859
rhand -14.1097 24.1524
rfingers 7.12502
rthumb 12.0233 -5.48224
lclavicle 3.68994e-014 -6.16232e-015
lhumerus -85.7317 -27.7426 96.2087
lradius 35.1039
lwrist 15.2109
lhand 27.5374 28.0656
lfingers 7.12502
lthumb 51.48 48.4752
rfemur -6.91308 34.7829 31.4492
rtibia 11.4861
rfoot -5.4453 -32.9821
rtoes 9.96497
lfemur -53.1742 -38.7244 18.8228
ltibia 16.1884
lfoot -28.4703 32.4588
ltoes 13.5416
1681
root 6.72225 16.078 -19.4575 13.5297 -49.2161 -2.94527
lowerback -8.52012 7.35976 6.08576
upperback -8.66892 9.28765 -0.639239
thorax -3.29704 4.27776 -3.42072
lowerneck -3.9681 4.62086 -2.15877
upperneck 22.567 4.50833 9.64315
head 7.23298 2.76069 3.83865
rclavicle -4.90004e-014 -1.09332e-014
rhumerus -16.6244 41.019 -76.6783
rradius 15.6225
rwrist -26.3811
rhand -13.96 23.9448
rfingers 7.12502
rthumb 12.1677 -5.68135
lclavicle -4.90004e-014 -1.09332e-014
lhumerus -85.6581 -27.6733 96.1356
lradius 35.0793
lwrist 15.2104
lhand 27.2381 27.7645
lfingers 7.12502
lthumb 51.2076 48.3293
rfemur -6.65476 34.9877 31.5079
rtibia 11.4043
rfoot -5.56294 -33.069
rtoes 9.87144
lfemur -53.3331 -39.2529 19.2134
ltibia 16.2378
lfoot -27.8674 33.1252
ltoes 10.3883
1682
root 6.70572 16.0728 -19.4271 13.7662 -49.3174 -3.1141
lowerback -8.68163 7.40359 6.26867
upperback -8.66493 9.3204 -0.662115
thorax -3.17227 4.28852 -3.51593
lowerneck -4.1091 4.71618 -2.02778
upperneck 22.536 4.65087 9.5417
head 7.24686 2.83429 3.79562
rclavicle 5.75979e-014 2.50469e-014
rhumerus -17.1379 42.2664 -77.1595
rradius 16.0162
rwrist -27.2564
rhand -14.0505 23.8646
rfingers 7.12502
rthumb 12.0804 -5.7667
lclavicle 5.75979e-014 2.50469e-014
lhumerus -85.6194 -27.7177 96.1538
lradius 35.0136
lwrist 15.2885
lhand 27.0851 27.8151
lfingers 7.12502
lthumb 51.0682 48.4584
rfemur -6.61603 35.0156 31.5679
rtibia 11.3803
rfoot -5.68127 -32.878
rtoes 9.4611
lfemur -53.2741 -39.2309 19.1336
ltibia 16.269
lfoot -27.0867 33.3267
ltoes 7.38472
1683
root 6.68821 16.071 -19.3975 13.8096 -49.4697 -2.99815
lowerback -8.86342 7.40046 6.14771
upperback -8.68582 9.30631 -0.632144
thorax -3.11917 4.28818 -3.40063
lowerneck -4.1588 4.87478 -2.13076
upperneck 22.5427 4.87179 9.61221
head 7.23771 2.9398 3.85128
rclavicle 1.26725e-014 -4.96962e-015
rhumerus -17.6186 43.4065 -77.5653
rradius 16.4099
rwrist -28.1282
rhand -14.2027 24.0741
rfingers 7.12502
rthumb 11.9336 -5.56579
lclavicle 1.26725e-014 -4.96962e-015
lhumerus -85.5729 -27.5185 96.0399
lradius 35.0308
lwrist 15.2691
lhand 27.3721 28.1975
lfingers 7.12502
lthumb 51.3296 48.6931
rfemur -6.62362 34.9635 31.4191
rtibia 11.3675
rfoot -5.88499 -32.6648
rtoes 9.68263
lfemur -52.9468 -38.8208 18.3727
ltibia 16.3053
lfoot -26.2991 33.1566
ltoes 5.99723
1684
root 6.66815 16.0703 -19.3709 13.9448 -49.7071 -3.02661
lowerback -8.96356 7.38628 6.03015
upperback -8.71633 9.28557 -0.514704
thorax -3.13546 4.28366 -3.21026
lowerneck -4.15277 5.0654 -2.32231
upperneck 22.5005 5.15056 9.68622
head 7.19485 3.06473 3.92207
rclavicle 1.49089e-016 -1.09332e-014
rhumerus -17.9806 44.6149 -77.9181
rradius 16.7288
rwrist -28.9995
rhand -13.8703 24.3402
rfingers 7.12502
rthumb 12.2542 -5.28074
lclavicle 1.49089e-016 -1.09332e-014
lhumerus -85.5019 -27.1406 95.8571
lradius 34.9826
lwrist 15.2622
lhand 27.4373 28.278
lfingers 7.12502
lthumb 51.3889 48.7398
rfemur -6.64492 34.9559 31.3874
rtibia 11.4215
rfoot -6.03125 -32.5131
rtoes 9.85553
lfemur -52.54 -38.3761 17.7151
ltibia 16.2968
lfoot -25.3081 32.9932
ltoes 4.95932
1685
root 6.6495 16.0719 -19.344 14.1417 -49.9806 -3.10937
lowerback -9.0064 7.4417 6.04441
upperback -8.78362 9.35367 -0.535561
thorax -3.17234 4.31282 -3.23224
lowerneck -4.17687 5.17946 -2.22142
upperneck 22.4016 5.30786 9.67262
head 7.16089 3.14743 3.90692
rclavicle 2.1916e-014 -7.95139e-016
rhumerus -18.4899 45.7322 -78.4948
rradius 17.0491
rwrist -29.8987
rhand -13.4489 24.2055
rfingers 7.12502
rthumb 12.6604 -5.3908
lclavicle 2.1916e-014 -7.95139e-016
lhumerus -85.5574 -27.0718 95.721
lradius 34.9991
lwrist 15.4187
lhand 27.377 28.3652
lfingers 7.12502
lthumb 51.3341 48.8582
rfemur -6.73651 34.9795 31.343
rtibia 11.5672
rfoot -6.50775 -32.2921
rtoes 10.4775
lfemur -52.5669 -38.5727 17.9564
ltibia 16.2029
lfoot -25.1871 33.299
ltoes 5.87553
1686
root 6.63249 16.0743 -19.3136 14.0905 -50.2817 -2.94817
lowerback -9.04827 7.51939 5.95543
upperback -8.81359 9.4561 -0.687641
thorax -3.15897 4.36438 -3.327
lowerneck -4.11505 5.26467 -1.92781
upperneck 22.132 5.40668 9.68347
head 7.06665 3.21608 3.85421
rclavicle 3.05631e-015 -7.7526e-015
rhumerus -19.0029 46.0973 -79.0759
rradius 17.4518
rwrist -30.1299
rhand -13.5389 23.8616
rfingers 7.12502
rthumb 12.5737 -5.73999
lclavicle 3.05631e-015 -7.7526e-015
lhumerus -85.7039 -27.2092 95.6331
lradius 35.1523
lwrist 15.5644
lhand 27.8207 28.6576
lfingers 7.12502
lthumb 51.7374 48.9179
rfemur -6.71061 34.9169 31.1499
rtibia 11.6736
rfoot -7.27705 -31.9333
rtoes 11.5615
lfemur -52.6742 -39.0197 18.2404
ltibia 16.1441
lfoot -26.2991 33.4635
ltoes 9.03788
1687
root 6.6151 16.0649 -19.2804 14.1496 -50.5157 -3.08545
lowerback -9.00604 7.56493 5.97264
upperback -8.79978 9.51858 -0.659259
thorax -3.1635 4.39563 -3.30545
lowerneck -4.17122 5.39874 -1.89358
upperneck 22.0665 5.56668 9.82391
head 7.04137 3.30877 3.90292
rclavicle -1.21408e-013 -2.24627e-014
rhumerus -19.4081 46.3323 -79.4149
rradius 17.8347
rwrist -30.095
rhand -13.4528 23.4808
rfingers 7.12502
rthumb 12.6567 -6.11573
lclavicle -1.21408e-013 -2.24627e-014
lhumerus -85.775 -27.1651 95.7004
lradius 35.1511
lwrist 15.6149
lhand 27.9877 28.4317
lfingers 7.12502
lthumb 51.889 48.6031
rfemur -6.52356 34.7401 31.2924
rtibia 11.7921
rfoot -7.15919 -31.6471
rtoes 10.0516
lfemur -52.2847 -39.03 18.0522
ltibia 16.08
lfoot -27.4555 32.5032
ltoes 11.1368
1688
root 6.59759 16.0505 -19.2488 14.5247 -50.6621 -3.41197
lowerback -9.09635 7.60702 6.09758
upperback -8.77325 9.55889 -0.606817
thorax -3.0733 4.41437 -3.2994
lowerneck -4.62589 5.52127 -1.93482
upperneck 22.1769 5.70698 9.98081
head 7.14225 3.39771 3.99126
rclavicle -2.80535e-014 -7.7526e-015
rhumerus -19.5564 46.8257 -79.5767
rradius 18.1446
rwrist -30.4421
rhand -12.6166 23.1085
rfingers 7.12502
rthumb 13.4628 -6.43636
lclavicle -2.80535e-014 -7.7526e-015
lhumerus -85.6999 -27.1114 95.68
lradius 35.1718
lwrist 15.6926
lhand 27.7202 28.0375
lfingers 7.12502
lthumb 51.6461 48.351
rfemur -6.63028 34.5559 31.4646
rtibia 12.0009
rfoot -6.60145 -31.6035
rtoes 7.84564
lfemur -52.1933 -39.0882 18.3287
ltibia 15.9336
lfoot -28.9122 31.2276
ltoes 15.7832
